<?xml version="1.0" encoding="utf-8"?>
<!-- Generator: Adobe Illustrator 22.1.0, SVG Export Plug-In . SVG Version: 6.00 Build 0)  -->
<svg version="1.1" id="Layer_1" xmlns="http://www.w3.org/2000/svg" xmlns:xlink="http://www.w3.org/1999/xlink" x="0px" y="0px"
	 viewBox="0 0 623.3 145" style="enable-background:new 0 0 623.3 145;" xml:space="preserve">
<style type="text/css">
	.st0{fill:#93226C;}
	.st1{fill:#539EA1;}
	.st2{fill:#73B566;}
	.st3{fill:#EB602A;}
</style>
<path class="st0" d="M358.4,39.8c4.7,0,9.3,0,14,0c0,3.8,0,7.9,0,11.9c0,0.7-0.1,1.5-0.2,2.2c0,5.1,0.1,10.2,0,15.2
	c-0.3,10.2-1.3,20.3-1,30.5c0.1,5-0.3,9.9-0.5,14.9c0,0.5-0.1,1-0.1,1.8c-1.5,0.3-3,0.6-4.5,0.7c-2.7,0.2-5.4,0.3-8.1,0.5
	c-1.5,0.1-2.3-0.5-2.9-1.8c-1.3-2.8-2.6-5.6-3.9-8.4c-2.4-5.3-4.9-10.6-7.7-15.9c-2.3,10.6-3.3,21.2-5,32.1
	c-4.2-0.2-8.4-0.3-12.6-0.6c-0.6-0.1-1.5-1.2-1.7-2c-0.3-1.1-0.1-2.3-0.1-3.5c0.3-5.8,0.7-11.5,1-17.3c0.4-7.5,0.7-15,1-22.5
	c0.2-3.3,0.3-6.6,0.5-9.9c0.3-7.3,0.6-14.7,1-22c0.1-1.8,0.4-3.6,0.7-5.8c3.1-0.5,6.5-1.1,10.1-1.7c5.7,13.9,11.3,27.5,17.2,41.8
	c0.4-1.5,0.8-2.5,0.9-3.5c0.1-0.9,0-1.8,0-2.7c0.2-6,0.2-11.9,0.5-17.9C357.4,50.7,357.9,45.5,358.4,39.8z"/>
<path class="st0" d="M434.7,56.1c0,2.2-0.1,3.9,0,5.6c0.4,5.7-0.9,11.1-2.2,16.5c-1,4.4-2.6,8.8-4.4,13c-2.1,5-5.3,9.5-10,12.5
	c-8.1,5.1-18.7,3.4-24.6-4.2c-3.2-4.1-5.4-8.5-6.6-13.4c-1.2-5-2.4-10-2.4-15.2c0-4-0.4-7.9-0.4-11.9c-0.1-6.4,0.3-12.7,1.8-19
	c1.4-5.7,3.3-11.1,6.7-15.9c2.7-3.9,5.9-7.2,10.3-9.2c7.3-3.2,15.1-2.8,21.3,2.6c1.8,1.6,3.3,3.7,4.3,5.9c2.7,5.7,4.3,11.7,5.3,18.1
	C434.6,46.5,434.5,51.6,434.7,56.1z M397,60.9c0.2,3.3,0.3,6.6,0.7,9.9c0.7,5.3,2,10.3,5.2,14.7c1.8,2.5,6,4.1,8.2,3.4
	c4.2-1.3,6.5-4.4,8-8.2c2.6-6.3,3.2-12.9,3.4-19.6c0.1-3-0.4-6.1-0.4-9.1c0-5-0.9-9.7-2.5-14.4c-1.9-5.3-7.9-7.4-12.3-5.1
	c-4.5,2.3-6.7,6.4-8,10.9C397.6,49,396.7,54.9,397,60.9z"/>
<path class="st0" d="M300.6,147c-1.9-16.1-3.7-31.8-5.5-47.8c-4.1,0-8,0-12.2,0c-0.7,6.6-1.5,13.3-2.2,20.2
	c-5.3,0.3-10.2,0.6-15.6,0.9c-0.1-0.7-0.4-1.7-0.3-2.6c0.2-2.9,0.6-5.8,1-8.8c0.6-4.1,1.2-8.2,1.9-12.3c0.6-3.8,1.2-7.5,2.1-11.2
	c1.8-7.8,4.1-15.5,8.2-22.4c2.4-4.1,5.3-7.9,9.8-9.8c4.1-1.8,9.8-0.9,13,3.3c4.5,6,6.5,13,8,20.1c0.8,3.9,1.7,7.8,2.4,11.7
	c0.4,2.2,0.5,4.4,0.6,6.6c0.4,5.4,0.4,10.9,1.1,16.3c1.4,10.9,0.8,21.8,0.9,32.8c0,2.7-0.3,3-3,3C307.3,147,304,147,300.6,147z
	 M289.6,86.5c1.5,0,3,0,4.5,0c1.2,0,1.7-0.5,1.6-1.7c-0.3-2.4-0.4-4.9-1.1-7.2c-1-3.2-5.3-3.6-7.6-1.3c-2.2,2.3-2.3,5.3-3.2,8
	c-0.4,1.3,0.2,2.2,1.8,2.1C286.9,86.4,288.2,86.5,289.6,86.5z"/>
<path class="st0" d="M172.4,107c-9.8,0.2-19.3,0.5-29,0.7c-0.1-1.2-0.2-1.9-0.2-2.6c0-5.7,0.1-11.5,0-17.2
	c-0.1-10.8-0.3-21.6-0.5-32.4c-0.1-6.1-0.3-12.2-0.5-18.4c-0.1-4.2-0.3-8.4-0.5-12.6c0-0.8,0-1.6,0-2.4c0.6-0.2,1-0.4,1.4-0.4
	c3.6-0.2,7.3-0.3,10.9-0.6c5.8-0.4,11.6-1,17.4-1.5c3.3-0.3,6.6-0.4,9.9-0.5c0.7,0,1.5,0,2.2-0.1c1.9-0.4,2.2-0.2,2.2,1.6
	c0,1.4-0.3,2.8-0.5,4.1c-0.4,3.4-0.9,6.8-1.3,10.4c-8.4,0.6-16.5,1.2-24.6,1.8c0,7.7,0,14.9,0,22.4c0.9,0.1,1.7,0.2,2.4,0.2
	c4.4-0.1,8.8-0.4,13.1-0.5c2.3-0.1,2.3,0.1,1.9,2.4c-0.1,0.7,0,1.5-0.1,2.2c-0.2,3.3-0.3,6.6-0.5,9.9c-0.1,1.3-0.8,1.9-2,2
	c-4.7,0.7-9.3,1.4-14.5,2.2c0.3,3.7,0.6,7.4,0.8,11.3c5.1,0,9.8,0,15,0C174.4,95.1,173.4,100.9,172.4,107z"/>
<path class="st0" d="M239.9,0.4c1.5-0.1,3-0.4,4.5-0.4c4.8,0.1,9.7-0.2,14.4,0.6c7,1.2,13.2,4,16.9,10.7c2.3,4.2,3.7,8.6,3.5,13.5
	c-0.1,2.2,0.1,4.5,0,6.7c-0.2,6.1-2.7,11.5-6.8,15.8c-3.9,4.2-9,6.8-14.9,7.8c-0.3,1.7-0.6,3.3-0.8,4.9c-0.5,4-1,7.9-1.5,11.9
	c-0.4,3.8-0.7,7.5-1,11.3c-0.3,2.9-0.6,5.9-1.1,8.7c-0.2,0.8-1.3,1.7-2.2,1.9c-3.3,0.7-6.7,1.1-10.1,1.6c-0.6,0.1-1.2,0-2,0
	c0-0.8-0.1-1.5-0.1-2.2c0-12-0.1-24,0-36c0.1-11.2,0.3-22.4,0.5-33.6C239.3,16.1,239.6,8.5,239.9,0.4z M256.6,38.7
	c1.6-0.8,2.8-1.2,3.8-1.8c4.5-2.7,5.8-7,5.7-11.9c-0.1-5.8-4.4-9.9-10.5-9.4C255.8,23.3,255.3,30.9,256.6,38.7z"/>
<path class="st0" d="M178.1,120.6c3.1-3.7,6.1-7.3,9.1-10.9c1.1-1.3,2.5-0.9,3.3,0c3.1,3.1,7,2.8,10.5,2.1c3.6-0.7,6-3.7,7.2-7.4
	c1.2-3.8,0.7-7.7-0.7-11.3c-2.1-5.1-5.3-9.6-8.7-13.9c-4.9-6.3-8.8-13-9.7-21.3c-0.5-4.7-0.4-9.2,1.3-13.5c2.5-6.5,7.2-11.2,14-12.7
	c3.7-0.8,7.9-0.8,11.7,0c4.1,0.9,8,3,11,6.3c1,1.1,1.2,2.1,0.2,3.3c-2.1,2.5-4,5.1-5.9,7.6c-1.8-0.7-3.6-1.3-5.4-2
	c-2.9-1-5.8-0.5-8.2,1.1c-2.1,1.4-3.2,3.8-3.5,6.4c-0.5,4.5,1.6,8.1,4.2,11.4c4,5.2,8.4,10,12.2,15.3c4.9,6.9,6.9,14.7,6.1,23.1
	c-0.7,7.4-3.8,13.9-9.7,18.6c-2.7,2.1-5.7,3.7-9,4.8c-4.5,1.5-9,2-13.5,1.7C188.4,129.1,181.2,125.6,178.1,120.6z"/>
<path class="st0" d="M459.9,32.7c-0.3,6.1-0.5,11.6-0.8,17.2c-0.1,2.9-0.4,5.8-0.5,8.6c-0.2,8.3-0.3,16.6-0.5,24.9
	c-0.2,6.8-0.6,13.5-1,20.3c0,0.8,0,1.7,0,2.7c9.3,0,18.5,0,27.8,0c0,5.8,0,11.3,0,17c-3.5,0.2-7,0.5-10.5,0.6
	c-8.5,0.2-16.9,0.3-25.4,0.5c-2.7,0.1-5.4,0.4-8.5,0.7c0-2-0.1-3.6,0-5.1c0.3-3.4,0.6-6.8,1-10.3c0.5-5.5,1-11.1,1.5-16.6
	c0.2-2.4,0.4-4.7,0.5-7.1c0.2-3.1,0.2-6.3,0.5-9.4c0.4-5.3,1-10.6,1.5-15.9c0-0.3,0-0.7,0-1c0.5-6.4,1-12.8,1.5-19.1
	c0.1-1.6,0.1-3.2,0-4.7c-0.1-1.6,0.2-2.5,2.1-2.5C452.6,33.4,456,33,459.9,32.7z"/>
<path class="st0" d="M119.7,48.5c0,1.3,0,2.1,0,2.9c0,5.2,0.1,10.5,0,15.7c-0.1,8.6-0.3,17.2-0.5,25.9c-0.1,6.1-0.3,12.2-0.5,18.4
	c-0.2,5-0.5,10-0.7,15.1c-5.7-1.2-11.4-2.5-17.4-3.8c0.4-4.3,0.8-8.7,1.2-13.2c0.2-1.9,0.4-3.8,0.5-5.6c0.2-4,0.2-7.9,0.5-11.9
	c0.4-4.9,1-9.8,1.4-14.7c0.1-1,0-2,0-3c0.5-5.7,1-11.4,1.5-17.2c0.2-2.4,0.3-4.8,0.6-7.1c0.1-0.6,0.7-1.5,1.1-1.5
	C111.3,48.4,115.3,48.5,119.7,48.5z"/>
<path class="st0" d="M517,100.4c-3.9,0.2-7.6,0.5-11.7,0.7c0-3.4,0-6.4,0-9.5c0-0.6,0.3-1.1,0.3-1.7c0.2-7.3,0.3-14.6,0.5-21.9
	c0.1-5,0.3-9.9,0.5-14.9c0.1-3.9,0.3-7.8,0.5-11.6c0.2-4.4,0.5-8.9,0.7-13.5c4.9,0,10,0,14.9,0c-0.1,0.9-0.1,1.8-0.2,2.6
	c-0.5,5.8-1,11.6-1.5,17.4c-0.2,2.5-0.4,4.9-0.5,7.4c-0.2,3.6-0.2,7.3-0.5,10.9c-0.4,4.7-1,9.4-1.4,14.2c-0.1,0.7,0,1.5,0,2.2
	c-0.3,5.3-0.6,10.5-1,15.8C517.6,99.3,517.2,99.8,517,100.4z"/>
<path class="st0" d="M333.7,29.4c-1.6-1.8-3.1-3.5-4.6-5.2c2.3-3.9,5.7-6.3,9.8-7.1c4.4-0.9,8.7,0,12.4,3.1c3,2.4,7.9,3.4,11.7,0.4
	c0.6-0.5,2-0.4,2.8-0.1c1.1,0.4,2,1.4,3,2.2c-1.8,4.1-4.3,7.6-8,10c-3.5,2.2-7.2,1.8-10.7,0.4c-1.3-0.5-2.5-1.6-3.6-2.5
	C342.5,27.4,338.3,27.2,333.7,29.4z"/>
<path class="st0" d="M107.5,25.8c4.7,0,9,0,13.6,0c-0.2,3.8-0.4,7.8-0.6,12c-4.4,0-8.9,0-13.8,0C107,33.9,107.2,30.1,107.5,25.8z"/>
<path class="st1" d="M56.3,53.7c4.7,0,9,0,13.6,0c-0.2,3.8-0.4,7.8-0.6,12c-4.4,0-8.9,0-13.8,0C55.7,61.8,56,58,56.3,53.7z"/>
<path class="st2" d="M63.9,75.9c7.1,0,13.7,0,20.7,0c-0.3,5.7-0.6,11.8-1,18.1c-6.7,0-13.5,0-21,0C63.1,88.1,63.5,82.4,63.9,75.9z"
	/>
<path class="st3" d="M563.2,74.3c7.1,0,13.7,0,20.7,0c-0.3,5.7-0.6,11.8-1,18.1c-6.7,0-13.5,0-21,0
	C562.4,86.4,562.8,80.7,563.2,74.3z"/>
<path class="st2" d="M541.3,43.3c7.1,0,13.7,0,20.7,0c-0.3,5.7-0.6,11.8-1,18.1c-6.7,0-13.5,0-21,0
	C540.4,55.5,540.8,49.8,541.3,43.3z"/>
<path class="st3" d="M28.5,66.5c4.7,0,9,0,13.6,0c-0.2,3.8-0.4,7.8-0.6,12c-4.4,0-8.9,0-13.8,0C28,74.6,28.2,70.8,28.5,66.5z"/>
<path class="st1" d="M594.2,74.3c4.7,0,9,0,13.6,0c-0.2,3.8-0.4,7.8-0.6,12c-4.4,0-8.9,0-13.8,0C593.6,82.3,593.9,78.6,594.2,74.3z"
	/>
<path class="st0" d="M504.3,112.1c4.3,0,8.5,0,12.6,0c-0.4,4.4-0.8,8.6-1.1,12.8c-4.1,0.3-7.9,0.5-11.8,0.7
	C503.2,120.9,503.8,116.6,504.3,112.1z"/>
</svg>
